inDegrees=no
num_controls=7
num_derivatives=13
num_iterations=61
num_multipliers=7
num_parameters=0
num_slacks=7
num_states=26
objective=0.334262
objective_accelerations=0.036311
objective_balance=0.001308
objective_effort=0.026809
objective_height=0.268361
objective_ligament=0.001473
solver_duration=643.490801
status=Solve_Succeeded
success=true
DataType=double
version=3
OpenSimVersion=4.5
endheader
time	/jointset/ground_pelvis/pelvis_tilt/value	/jointset/ground_pelvis/pelvis_tx/value	/jointset/ground_pelvis/pelvis_ty/value	/jointset/hip_r/hip_flexion_r/value	/jointset/hip_r/hip_adduction_r/value	/jointset/hip_r/hip_rotation_r/value	/jointset/back/lumbar_extension/value	/jointset/patellofemoral_r/patellar_flexion_r/value	/jointset/knee_r/knee_flexion_r/value	/jointset/knee_r/knee_adduction_r/value	/jointset/knee_r/knee_rotation_r/value	/jointset/ankle_r/ankle_angle_r/value	/jointset/subtalar_r/subtalar_angle_r/value	/jointset/ground_pelvis/pelvis_tilt/speed	/jointset/ground_pelvis/pelvis_tx/speed	/jointset/ground_pelvis/pelvis_ty/speed	/jointset/hip_r/hip_flexion_r/speed	/jointset/hip_r/hip_adduction_r/speed	/jointset/hip_r/hip_rotation_r/speed	/jointset/back/lumbar_extension/speed	/jointset/patellofemoral_r/patellar_flexion_r/speed	/jointset/knee_r/knee_flexion_r/speed	/jointset/knee_r/knee_adduction_r/speed	/jointset/knee_r/knee_rotation_r/speed	/jointset/ankle_r/ankle_angle_r/speed	/jointset/subtalar_r/subtalar_angle_r/speed	/forceset/tau_hip_flexion_r	/forceset/tau_hip_adduction_r	/forceset/tau_hip_rotation_r	/forceset/tau_knee_flexion_r	/forceset/tau_ankle_angle_r	/forceset/tau_subtalar_angle_r	/forceset/tau_lumbar_extension	lambda_cid13_p0	lambda_cid14_p0	lambda_cid14_p1	lambda_cid14_p2	lambda_cid14_p3	lambda_cid14_p4	lambda_cid14_p5	/jointset/ground_pelvis/pelvis_tilt/accel	/jointset/ground_pelvis/pelvis_tx/accel	/jointset/ground_pelvis/pelvis_ty/accel	/jointset/hip_r/hip_flexion_r/accel	/jointset/hip_r/hip_adduction_r/accel	/jointset/hip_r/hip_rotation_r/accel	/jointset/back/lumbar_extension/accel	/jointset/patellofemoral_r/patellar_flexion_r/accel	/jointset/knee_r/knee_flexion_r/accel	/jointset/knee_r/knee_adduction_r/accel	/jointset/knee_r/knee_rotation_r/accel	/jointset/ankle_r/ankle_angle_r/accel	/jointset/subtalar_r/subtalar_angle_r/accel	gamma_cid13_p0	gamma_cid14_p0	gamma_cid14_p1	gamma_cid14_p2	gamma_cid14_p3	gamma_cid14_p4	gamma_cid14_p5
0	-0.01201499096744008	0.1343284340144207	0.9324404736415942	0.1934211968871041	-0.2384994222814545	-0.2348016665484901	-0.2903787966825928	0.2311786273363406	0.2311786273363406	0.1554282632889401	0.1728892058939538	0.089344008118978	0.05099576736962012	0	0	0	0	0	0	0	0	0	0	0	0	0	0.1017129806785354	-0.03694999504559362	0.007098739519298558	-0.2370516032134014	0.1112809485930244	-0.1299909186334372	-0.02454315644011616	-29.99636943232548	-12.60273483755679	-53.34494576954265	2.853559039711883	6.157020355287418	-612.0985952891822	15.65550219119524	-2.035780861867003	-1.941140003486889	-0.8138565090830783	10.24073472818	0.3449614257149935	2.456147529551843	-6.242369112208952	9.971696620211416	9.971696620211432	-3.255671869744867	0.09735847920524804	2.638753911639374	1.12935654246944	1.094186981044412e-07	8.015225385272324e-08	-7.081038428351446e-07	4.586001295437619e-07	2.167994506017371e-08	2.860185168648099e-07	-5.795893124059322e-07
0.01	-0.01211150371533634	0.134233954887642	0.9324009256157526	0.1939193327221683	-0.2384807206101526	-0.2346788897446441	-0.2906928947252288	0.2316674585937826	0.2316674585937827	0.1552650052207422	0.1728905326969628	0.08947528112985419	0.05105384696157232	-0.01929154927352841	-0.01865879513409275	-0.00789152874968824	0.09899680064670228	0.003615898573358343	0.02430341257823771	-0.06246842134474255	0.09724295939228837	0.09724295939228766	-0.03225365208674147	0.0004231539268926537	0.02623811709289606	0.01146325354808374	0.1044473081978068	-0.05853376366670124	0.006401420766277377	-0.247526081899178	0.1245267562642138	-0.117015330694995	-0.02525522055633713	-30.00064252530461	-7.698719385246676	-46.79217011417978	1.741679406216494	0.5818364562434675	-613.5741785284121	30.39647529624646	-1.874191488353522	-1.79269039912576	-0.7740323914129842	9.634602376505626	0.3512116174387078	2.379741587182965	-6.196400568243946	9.522079900578728	9.522079900578623	-3.150587178506002	0.03855542513035756	2.613886747919981	1.131852082078934	9.770606400786401e-08	5.660994156228592e-08	-5.986622968869414e-07	4.424050963563197e-07	3.066254450127675e-08	1.371741376072713e-07	-5.393818633486337e-07
0.02	-0.0124006018616193	0.1339599995833713	0.9322830160357138	0.1953885264924177	-0.2384295984442587	-0.2343206181219717	-0.2916211413658396	0.2331130163055159	0.2331130163055158	0.1547911355716034	0.1729008433543805	0.0898684445396194	0.05122196755322427	-0.03851707967736782	-0.03589523549839547	-0.01567231083942431	0.1942115870370161	0.00648409891841488	0.04709896376528317	-0.1228297195949671	0.1913452908582239	0.1913452908582229	-0.06212231618817158	0.001796770881748627	0.05237807977780152	0.02200819993994715	0.1071816357170783	-0.080117532287815	0.00570410201325554	-0.2580005605849546	0.137772563935403	-0.1040397427565529	-0.02596728467255803	-30.01328253554826	-2.71649891106343	-40.25081103564597	0.6603036135686989	-4.907476201276556	-613.7476807016362	44.79813323683727	-2.022577087929206	-1.656669049528878	-0.7917071770926447	9.484331876902317	0.1954217800546323	2.154575251313392	-5.82094449330535	9.343571034940855	9.343571034940942	-2.778674272682597	0.2874510847979123	2.619123030041254	0.945695111225373	8.599342991128679e-08	3.306762927184859e-08	-4.892207509387382e-07	4.262100631688775e-07	3.964514394237979e-08	-1.167024165026738e-08	-4.991744142913352e-07
0.03	-0.01288123820977959	0.1335192424794542	0.9320876239766661	0.1977933907428197	-0.2383521960302643	-0.2337408195414773	-0.2931410022422851	0.2354848840414156	0.2354848840414154	0.1540276258911409	0.1729277557047717	0.09052150817705426	0.05149233241232484	-0.05751847623280001	-0.05217323223998725	-0.02340285587774885	0.2863281656282155	0.009032056182247221	0.06888800689205721	-0.1806911178750889	0.2825784538488732	0.2825784538488724	-0.09050479521155134	0.003371540317610669	0.07812601585625548	0.0320830534381233	0.1008804203895383	-0.08241318032011427	0.006549688455862367	-0.2512653590078252	0.1278230332500579	-0.09731040423561482	-0.02077833431888975	-30.03400377189151	-5.570367467635476	-37.68061228579872	0.08224704976428113	-3.769772531787514	-614.2138625408735	48.98710183970161	-1.825157660173137	-1.600914064389652	-0.7632443387863536	9.010361585244404	0.289841563928291	2.195238886391376	-5.701036822512666	8.945701408835111	8.945701408835243	-2.856844800784349	0.06044758988628353	2.536342505463913	1.041096751933658	1.189875172155547e-07	4.528636755751585e-08	-6.653425049890671e-07	5.961285080741556e-07	5.573264327985377e-08	-4.147733324892802e-08	-6.968345097437076e-07
0.04	-0.01354913586765868	0.1329181955925381	0.9318150232329183	0.201106428926137	-0.2382482422707556	-0.2329422965211088	-0.2952259369669613	0.2387555859027635	0.2387555859027632	0.1529825294037211	0.1729640072929027	0.09142879389701694	0.05186398906297118	-0.07596934162114909	-0.06795319209819034	-0.03111404777943243	0.375846373620041	0.01179436802130986	0.09084385174010988	-0.2358444892410942	0.3711121159478518	0.371112115947853	-0.1184396775796784	0.003664618429721421	0.1032224962833652	0.04226655824909982	0.09457920506199835	-0.08470882835241353	0.007395274898468533	-0.244530157430696	0.1178735025647128	-0.09058106571467674	-0.01558938396522184	-30.06145539341974	-8.352372684018919	-35.1177119405048	-0.4719359844648318	-2.564504885825281	-613.5029280619347	52.87186507690672	-1.912470854512586	-1.557061672851145	-0.7878365497644532	8.964657757027508	0.2382926951006915	2.187935595569113	-5.279339110482071	8.803670856607061	8.803670856607111	-2.689154941632046	0.03111282004879193	2.488831899772187	0.9674253737857955	1.529033925899431e-07	5.824244709217495e-08	-8.473521621321492e-07	7.698843442803147e-07	7.196663539869624e-08	-6.883004778245714e-08	-8.993990906498876e-07
0.05	-0.01439910606273039	0.1321618589004718	0.9314651571129884	0.2053017096719418	-0.2381163712904221	-0.2319262544214517	-0.2978496555520148	0.2428982311993101	0.2428982311993099	0.1516618665209849	0.1729998191622501	0.09258340662591552	0.05233703388007833	-0.09391220644597328	-0.0832270114588534	-0.03887188899255883	0.4627001883118178	0.01453848286107192	0.1122038895396732	-0.288582067837313	0.4569272636894083	0.4569272636894088	-0.1454448891998491	0.003482245180546573	0.1275406706968599	0.0522567187744969	0.08940474560834728	-0.07727195238638179	0.007871154321098311	-0.2404929315092312	0.1137289202113039	-0.09222378962663819	-0.01135588540912041	-30.09421225997744	-9.710371462747146	-36.14535622523631	-0.2207958223322103	-2.13351657605545	-612.8757225841665	49.21343357489643	-1.718307737647107	-1.499457314723822	-0.77167881202844	8.469315881586645	0.2862917751305927	2.086083715428343	-5.223393244354625	8.396953927376153	8.396953927376096	-2.669058023555003	-0.04509160689140776	2.379418348852779	1.001916415403103	1.424445445216963e-07	4.51205189821136e-08	-7.740203839205754e-07	6.676317760541894e-07	7.376416854751257e-08	-1.795680175645329e-07	-7.895695410528925e-07
0.06	-0.01542512759428614	0.1312554009653889	0.9310373283999387	0.2103502430759312	-0.2379582949823476	-0.2307014027751432	-0.3009912351250629	0.2478843314121613	0.2478843314121613	0.1500785807717768	0.1730333714572082	0.09397642272629204	0.05290740130713673	-0.1111796089179887	-0.09797744070151217	-0.04670656640335336	0.5464969052569498	0.01703543356949925	0.1326057610703725	-0.3394166868400454	0.539803099208813	0.5398030992088153	-0.1709642508738366	0.003212703551740212	0.1509031705789416	0.06173108023935155	0.08423028615469547	-0.0698350764203504	0.008347033743729845	-0.236455705587767	0.1095843378578947	-0.0938665135386003	-0.007122386853019396	-30.13072290807576	-11.00585888601688	-37.18576298473369	0.05945916430937043	-1.635331475803898	-611.1987547940363	45.25783244561666	-1.77737838395083	-1.452383649250282	-0.8032037892980788	8.353238207698581	0.1888598688337474	1.996302341796295	-4.898747191784771	8.215808412176667	8.215808412177211	-2.391984952395416	0.01367914412248217	2.297696993489625	0.8642655616773105	1.301172870453385e-07	3.09005694975377e-08	-6.899373873782791e-07	5.537578013256522e-07	7.495385079232778e-08	-2.938169454623368e-07	-6.665865543820796e-07
0.07000000000000001	-0.01662180438356117	0.1302042422122617	0.9305303977882643	0.2162232583234807	-0.2377772179837097	-0.2292780328564595	-0.3046301962835516	0.2536858489230994	0.2536858489230988	0.1482487711831205	0.1730651249522986	0.09559877299442615	0.05356919588749458	-0.1281366870490483	-0.1121481024093186	-0.05472017597623675	0.6277469105078637	0.01914590959627262	0.1518391512690937	-0.3879607433038289	0.6201399394191831	0.6201399394191731	-0.1948021461457182	0.003205233786319234	0.1734851389710937	0.07057571898847449	0.07941347486785372	-0.07266607053542787	0.008789397908292343	-0.2342610570156428	0.1058993245549039	-0.0873776020912604	-0.003087687567279063	-30.16952326667849	-11.73201753951296	-34.47514019911733	-0.3951143794091707	-2.023762790664479	-609.7192206964402	49.31160792208431	-1.651996888185519	-1.383461299159072	-0.8065926962122302	7.957006997854574	0.2170425129240001	1.852602631088093	-4.770014640603494	7.888526417474417	7.88852641747215	-2.350414919962666	0.002230308122323554	2.226199135135055	0.8867031017295729	9.408349791538861e-08	1.190199045832838e-08	-4.032611511400497e-07	4.982820552142523e-07	5.832756903188011e-08	-3.367851620147931e-07	-5.215829501918907e-07
